# Blender3D v249 OBJ File: smallenemy.blend
# www.blender3d.org
mtllib smallenemy.mtl
v 0.593262 0.248133 -1.000000
v 0.965483 0.208300 0.233890
v -0.965483 0.208300 0.233890
v -0.593261 0.248133 -1.000000
v 0.714140 1.000000 -1.000000
v 0.638361 0.745910 0.594335
v -0.638362 0.745910 0.594333
v -0.714140 1.000000 -1.000000
v 0.000000 0.000000 1.000000
v 1.270724 0.500000 -0.564839
v -1.270725 0.500000 -0.564840
v -0.000001 0.977004 1.153388
v -0.000000 0.500000 0.036042
v 1.000000 1.000000 0.000000
v 0.000000 1.009111 -1.205424
v -1.000000 1.000000 -0.000000
v 0.499999 0.874469 0.897562
v -0.500000 0.874469 0.897562
v 0.500000 1.688954 -0.275203
v -0.500000 1.688954 -0.275203
v -0.000000 1.287256 -0.557695
v 0.392604 0.096540 0.819778
v -0.392604 0.096540 0.819778
vt 0.144647 0.376732
vt 0.362838 0.376846
vt 0.253549 0.747392
vt 0.454308 0.242471
vt 0.351942 0.251444
vt 0.428892 0.676625
vt 0.507426 0.433088
vt 0.053317 0.242261
vt 0.155674 0.251342
vt 0.078280 0.676442
vt 0.000000 0.432823
vt 0.253795 0.275774
vt 0.200685 0.197728
vt 0.306987 0.197783
vt 0.131730 0.152293
vt 0.128236 0.000000
vt 0.174548 0.002097
vt 0.253940 0.000025
vt 0.333330 0.002180
vt 0.375990 0.152421
vt 0.379643 0.000132
vt 0.817443 0.380980
vt 0.753713 0.181819
vt 1.000000 0.186109
vt 0.858221 0.393215
vt 0.753713 0.382999
vt 0.689984 0.380980
vt 0.507426 0.186109
vt 0.649205 0.393215
vt 0.253837 0.197056
vt 0.341577 0.712891
vt 0.165557 0.712799
vt 0.806793 0.033139
vt 0.753713 0.000000
vt 0.881454 0.016090
vt 0.700633 0.033139
vt 0.625972 0.016090
vn 0.000000 -0.992391 -0.123123
vn 0.561795 -0.090320 -0.822331
vn 0.432163 -0.887663 -0.159024
vn -0.561794 -0.090320 -0.822332
vn -0.432162 -0.887664 -0.159024
vn 0.000000 -0.260618 -0.965442
vn -0.275649 -0.044316 -0.960236
vn 0.275649 -0.044316 -0.960236
vn -0.194928 0.739012 -0.644875
vn 0.194928 0.739012 -0.644875
vn -0.872029 -0.155852 0.463979
vn -0.633050 0.635815 0.441573
vn -0.828824 0.506868 -0.236928
vn -0.418126 0.746104 0.518169
vn 0.418125 0.746104 0.518169
vn 0.633050 0.635815 0.441574
vn 0.828824 0.506868 -0.236927
vn 0.872028 -0.155851 0.463980
vn 0.739451 0.639165 -0.211379
vn 0.866947 -0.085315 0.491044
vn 0.150894 -0.935629 0.319107
vn -0.795421 0.335072 -0.505008
vn 0.012285 -0.919629 0.392597
vn -0.150894 -0.935629 0.319107
vn -0.012285 -0.919629 0.392597
vn 0.795418 0.335078 -0.505008
vn -0.866947 -0.085314 0.491043
vn -0.739450 0.639165 -0.211379
vn -0.665371 0.734536 0.133186
vn 0.665371 0.734536 0.133186
vn 0.458049 0.816803 -0.350748
vn -0.458048 0.816803 -0.350749
vn 0.122625 -0.990055 -0.068953
vn 0.213321 -0.975276 -0.057722
vn -0.213321 -0.975276 -0.057722
vn -0.122625 -0.990055 -0.068953
vn 0.178771 0.908357 0.378060
vn -0.006919 0.887669 0.460430
vn 0.255558 0.872561 0.416327
vn -0.178771 0.908357 0.378060
vn -0.255558 0.872561 0.416327
vn 0.006919 0.887669 0.460430
usemtl Material_smallenemy.psd
s off
f 4/1/1 1/2/1 9/3/1
f 10/4/2 1/2/2 5/5/2
f 2/6/3 1/2/3 10/7/3
f 11/8/4 8/9/4 4/1/4
f 3/10/5 11/11/5 4/1/5
f 15/12/6 1/2/6 4/1/6
f 8/9/7 15/12/7 4/1/7
f 5/5/8 1/2/8 15/12/8
f 8/9/9 20/13/9 15/12/9
f 15/12/10 19/14/10 5/5/10
f 16/15/11 7/16/11 18/17/11
f 18/17/12 20/13/12 16/15/12
f 8/9/13 16/15/13 20/13/13
f 20/13/14 18/17/14 12/18/14
f 19/14/15 12/18/15 17/19/15
f 17/19/16 14/20/16 19/14/16
f 5/5/17 19/14/17 14/20/17
f 14/20/18 17/19/18 6/21/18
f 5/5/19 14/20/19 10/4/19
f 14/20/20 6/21/20 10/4/20
f 17/22/21 13/23/21 10/24/21
f 6/25/22 17/22/22 10/24/22
f 17/22/23 12/26/23 13/23/23
f 18/27/24 11/28/24 13/23/24
f 12/26/25 18/27/25 13/23/25
f 18/27/26 7/29/26 11/28/26
f 7/16/27 16/15/27 11/8/27
f 16/15/28 8/9/28 11/8/28
f 19/14/29 21/30/29 12/18/29
f 21/30/30 20/13/30 12/18/30
f 20/13/31 21/30/31 15/12/31
f 21/30/32 19/14/32 15/12/32
f 22/31/33 1/2/33 2/6/33
f 9/3/34 1/2/34 22/31/34
f 9/3/35 23/32/35 4/1/35
f 23/32/36 3/10/36 4/1/36
f 22/33/37 10/24/37 13/23/37
f 9/34/38 22/33/38 13/23/38
f 22/33/39 2/35/39 10/24/39
f 23/36/40 13/23/40 11/28/40
f 3/37/41 23/36/41 11/28/41
f 23/36/42 9/34/42 13/23/42
